<svg 
 xmlns="http://www.w3.org/2000/svg"
 xmlns:xlink="http://www.w3.org/1999/xlink"
 width="16px" height="18px">
<path fill-rule="evenodd"  fill="rgb(255, 255, 255)"
 d="M12.451,3.528 C14.267,3.838 15.660,5.430 15.660,7.332 C15.660,13.477 12.062,17.680 5.705,17.680 L1.706,17.680 C0.824,17.680 0.522,16.504 1.295,16.080 C4.755,14.183 7.949,11.171 7.949,7.332 C7.949,5.430 9.342,3.838 11.157,3.528 L11.157,2.664 C11.157,1.528 12.084,0.602 13.218,0.602 L14.632,0.602 C14.990,0.602 15.279,0.891 15.279,1.249 L15.279,1.249 C15.279,1.607 14.990,1.897 14.632,1.897 L13.218,1.897 C12.796,1.897 12.451,2.242 12.451,2.664 L12.451,3.528 L12.451,3.528 Z"/>
</svg>