<?xml version="1.0" encoding="UTF-8"?>
<svg xmlns="http://www.w3.org/2000/svg" version="1.1" viewBox="0 0 80 80">
  <defs>
    <style>
      .cls-1, .cls-2, .cls-3, .cls-4, .cls-5, .cls-6, .cls-7, .cls-8, .cls-9, .cls-10 {
        fill: #f4c643;
      }

      .cls-1, .cls-11 {
        fill-rule: evenodd;
      }

      .cls-2 {
        opacity: .8;
      }

      .cls-3 {
        opacity: .2;
      }

      .cls-4 {
        opacity: .7;
      }

      .cls-5 {
        opacity: .6;
      }

      .cls-11 {
        fill: #2c1508;
      }

      .cls-6 {
        opacity: .5;
      }

      .cls-7 {
        opacity: .4;
      }

      .cls-9 {
        opacity: .3;
      }

      .cls-10 {
        opacity: .9;
      }
    </style>
  </defs>
  <!-- Generator: Adobe Illustrator 28.7.1, SVG Export Plug-In . SVG Version: 1.2.0 Build 142)  -->
  <g>
    <g id="_레이어_1" data-name="레이어_1">
      <path class="cls-2" d="M36.4,9.1v-2.9c0-1,.4-1.9,1.1-2.6.7-.7,1.6-1.1,2.6-1.1s1.9.4,2.6,1.1c.7.7,1.1,1.6,1.1,2.6v2.9c0,.7-.3,1.4-.8,1.9h0c-.5.5-1.2.8-1.9.8h-1.9c-.7,0-1.4-.3-1.9-.8-.5-.5-.8-1.2-.8-1.9h0Z"/>
      <path class="cls-2" d="M21.4,15l-1.5-2.5c-.5-.9-.6-1.8-.4-2.7.2-.9.8-1.7,1.7-2.2s1.8-.6,2.7-.4c.9.2,1.7.8,2.2,1.7l1.5,2.5c.4.6.4,1.4.3,2h0c-.2.7-.6,1.3-1.2,1.6l-1.6.9c-.6.4-1.4.4-2,.3-.7-.2-1.3-.6-1.6-1.2h0Z"/>
      <path class="cls-4" d="M11.4,27.7l-2.5-1.5c-.9-.5-1.4-1.3-1.7-2.2-.2-.9-.1-1.9.4-2.7s1.3-1.4,2.2-1.7c.9-.2,1.9-.1,2.7.4l2.5,1.5c.6.4,1.1,1,1.2,1.6h0c.2.7.1,1.4-.3,2l-.9,1.6c-.4.6-1,1.1-1.6,1.2-.7.2-1.4.1-2-.3h0Z"/>
      <path class="cls-10" d="M58.6,15c-.4.6-1,1.1-1.6,1.2-.7.2-1.4.1-2-.3l-1.6-.9c-.6-.4-1.1-1-1.2-1.6h0c-.2-.7-.1-1.4.3-2l1.5-2.5c.5-.9,1.3-1.4,2.2-1.7.9-.2,1.9-.1,2.7.4s1.4,1.3,1.7,2.2c.2.9.1,1.9-.4,2.7l-1.5,2.5h0Z"/>
      <path class="cls-8" d="M68.6,27.7c-.6.4-1.4.4-2,.3-.7-.2-1.3-.6-1.6-1.2l-.9-1.6c-.4-.6-.4-1.4-.3-2h0c.2-.7.6-1.3,1.2-1.6l2.5-1.5c.9-.5,1.8-.6,2.7-.4.9.2,1.7.8,2.2,1.7s.6,1.8.4,2.7c-.2.9-.8,1.7-1.7,2.2l-2.5,1.5h0Z"/>
      <path class="cls-6" d="M21.4,65c.4-.6,1-1.1,1.6-1.2.7-.2,1.4-.1,2,.3l1.6.9c.6.4,1.1,1,1.2,1.6h0c.2.7.1,1.4-.3,2l-1.5,2.5c-.5.9-1.3,1.4-2.2,1.7-.9.2-1.9.1-2.7-.4s-1.4-1.3-1.7-2.2c-.2-.9-.1-1.9.4-2.7l1.5-2.5h0Z"/>
      <path class="cls-5" d="M11.4,52.3c.6-.4,1.4-.4,2-.3.7.2,1.3.6,1.6,1.2l.9,1.6c.4.6.4,1.4.3,2h0c-.2.7-.6,1.3-1.2,1.6l-2.5,1.5c-.9.5-1.8.6-2.7.4-.9-.2-1.7-.8-2.2-1.7s-.6-1.8-.4-2.7c.2-.9.8-1.7,1.7-2.2l2.5-1.5h0Z"/>
      <path class="cls-9" d="M58.6,65l1.5,2.5c.5.9.6,1.8.4,2.7-.2.9-.8,1.7-1.7,2.2s-1.8.6-2.7.4c-.9-.2-1.7-.8-2.2-1.7l-1.5-2.5c-.4-.6-.4-1.4-.3-2h0c.2-.7.6-1.3,1.2-1.6l1.6-.9c.6-.4,1.4-.4,2-.3.7.2,1.3.6,1.6,1.2h0Z"/>
      <path class="cls-3" d="M68.6,52.3l2.5,1.5c.9.5,1.4,1.3,1.7,2.2.2.9.1,1.9-.4,2.7s-1.3,1.4-2.2,1.7c-.9.2-1.9.1-2.7-.4l-2.5-1.5c-.6-.4-1.1-1-1.2-1.6h0c-.2-.7-.1-1.4.3-2l.9-1.6c.4-.6,1-1.1,1.6-1.2.7-.2,1.4-.1,2,.3h0Z"/>
      <path class="cls-4" d="M9.1,43.6h-2.9c-1,0-1.9-.4-2.6-1.1-.7-.7-1.1-1.6-1.1-2.6s.4-1.9,1.1-2.6c.7-.7,1.6-1.1,2.6-1.1h2.9c.7,0,1.4.3,1.9.8h0c.5.5.8,1.2.8,1.9v1.9c0,.7-.3,1.4-.8,1.9-.5.5-1.2.8-1.9.8h0Z"/>
      <path class="cls-7" d="M36.4,70.9c0-.7.3-1.4.8-1.9.5-.5,1.2-.8,1.9-.8h1.9c.7,0,1.4.3,1.9.8h0c.5.5.8,1.2.8,1.9v2.9c0,1-.4,1.9-1.1,2.6-.7.7-1.6,1.1-2.6,1.1s-1.9-.4-2.6-1.1c-.7-.7-1.1-1.6-1.1-2.6v-2.9h0Z"/>
      <path class="cls-3" d="M70.9,43.6c-.7,0-1.4-.3-1.9-.8-.5-.5-.8-1.2-.8-1.9v-1.9c0-.7.3-1.4.8-1.9h0c.5-.5,1.2-.8,1.9-.8h2.9c1,0,1.9.4,2.6,1.1.7.7,1.1,1.6,1.1,2.6,0,1-.4,1.9-1.1,2.6-.7.7-1.6,1.1-2.6,1.1h-2.9,0Z"/>
      <g id="_레이어_1-2" data-name="_레이어_1">
        <path class="cls-11" d="M53.7,41.2c2.8.8,4.8,3.7,4.2,6.9-.4,2.3-2.3,4.3-4.5,4.7-3.1.6-5.8-1.2-6.7-3.9h-7.4c-.9,2.7-3.7,4.5-6.8,3.9-2.7-.6-4.6-3.3-4.6-6.2v-5.3h0c0,0,11.6,0,11.6,0v3.7h6.7v-13.4h-3.9v-4.6h7.3l1.9,6.6,2.5-2.6h2v6h-3.5l1.1,4.2h0ZM34.2,45c-1.1,0-2,.9-2,2s.9,2,2,2,2-.9,2-2-.9-2-2-2ZM50.2,47c0,1.1.9,2,2,2s2-.9,2-2-.9-2-2-2-2,.9-2,2Z"/>
        <path class="cls-1" d="M24.2,39.1v-3.3h11.9v3.3h-11.9ZM22,30.4h11v2.8h-11v-2.8Z"/>
      </g>
    </g>
  </g>
</svg>