<?xml version="1.0" encoding="UTF-8"?>
<svg id="_레이어_2" xmlns="http://www.w3.org/2000/svg" version="1.1" viewBox="0 0 45 44.8">
  <!-- Generator: Adobe Illustrator 29.0.1, SVG Export Plug-In . SVG Version: 2.1.0 Build 192)  -->
  <defs>
    <style>
      .st0 {
        fill: #999;
      }
    </style>
  </defs>
  <g id="_레이어_1-2">
    <path class="st0" d="M26.5,3.2v.9h-8.1v-.9h8.1ZM16.8,0h0c-.4,0-.8.2-1.1.5-.3.3-.5.7-.5,1.2v.4h-1.2c-3.6,0-6.6,2.9-6.6,6.5v5.3h3.2v-5.3c0-1.8,1.5-3.3,3.3-3.3h1.2v.5c0,.4.2.8.5,1.2.3.3.7.5,1.1.5h11.4c.9,0,1.6-.7,1.6-1.6v-.5h1.2c1.4,0,2.5.8,3,2h0c1.2,0,2.4.3,3.5.7-.3-3.3-3.1-5.9-6.5-5.9h-1.2v-.4c0-.9-.7-1.6-1.6-1.6h-11.4ZM42.5,15h0c-.9,0-1.6.7-1.6,1.6s.7,1.6,1.6,1.6,1.6-.7,1.6-1.6-.7-1.6-1.6-1.6h0ZM33.1,13.8h0c-.9,0-1.6.7-1.6,1.6v3.8h-3.9c-.9,0-1.6.7-1.6,1.6s.7,1.6,1.6,1.6h3.9v3.9c0,.9.7,1.6,1.6,1.6s1.6-.7,1.6-1.6v-3.8h3.8c.9,0,1.6-.7,1.6-1.6s-.7-1.6-1.6-1.6h-3.8v-3.9c0-.9-.7-1.6-1.6-1.6h0ZM33.1,9h0c-6.6,0-11.9,5.3-11.9,11.9s5.3,11.9,11.9,11.9,11.3-4.8,11.9-10.8h0c0-1-.7-1.7-1.6-1.7s-1.6.7-1.6,1.6h0c-.5,4.4-4.1,7.7-8.6,7.7s-8.7-3.9-8.7-8.7,3.9-8.7,8.7-8.7,3.9.7,5.3,1.8h0c.3.2.6.4,1,.4.9,0,1.6-.7,1.6-1.6s-.2-1-.6-1.3h0c-2-1.6-4.6-2.6-7.4-2.6h0ZM14.5,27.9h0s0,0,0,0c-.9,0-1.6.7-1.6,1.6v7.6c0,.9.7,1.6,1.6,1.6s1.6-.7,1.6-1.6v-7.6c0-.9-.7-1.6-1.6-1.6h0ZM21.5,28.2h0c-.4.3-.6.8-.6,1.3v7.6c0,.9.7,1.6,1.6,1.6s1.6-.7,1.6-1.6v-5.7c-1-.9-1.9-1.9-2.6-3.1h0ZM28.9,34h0v3h0c0,.9.7,1.6,1.6,1.6s1.6-.7,1.6-1.6v-2.4c-1.1,0-2.2-.3-3.2-.6h0ZM1.6,15.2h0c-.4,0-.8.2-1.1.5-.3.3-.5.7-.5,1.2v6.3c0,.4.2.8.5,1.1.3.3.7.5,1.1.5h1.5l2.1,14.5c.4,3.2,3.2,5.7,6.5,5.7h21.7c3.3,0,6-2.4,6.5-5.6l1-6.9h0c-1.1.7-2.3,1.3-3.5,1.7l-.7,4.7h0c-.2,1.6-1.6,2.8-3.3,2.8H11.7c-1.6,0-3-1.2-3.3-2.7l-2-14.1h13.5c-.3-1-.5-2.1-.5-3.2H3.2v-3h16.4c.2-1.1.6-2.2,1-3.2H1.6Z"/>
  </g>
</svg>