<?xml version="1.0" encoding="UTF-8"?>
<svg id="_레이어_1" data-name="레이어_1" xmlns="http://www.w3.org/2000/svg" version="1.1" viewBox="0 0 30 32">
  <!-- Generator: Adobe Illustrator 29.0.1, SVG Export Plug-In . SVG Version: 2.1.0 Build 192)  -->
  <defs>
    <style>
      .st0 {
        fill: #ddd;
      }
    </style>
  </defs>
  <path class="st0" d="M28,17.4c.6,0,1-.4,1-1v-6c0-.5,0-1-.3-1.4-.2-.4-.4-.7-.7-1l-5.9-6c-.3-.3-.6-.5-1-.7-.4-.2-.9-.3-1.4-.3h-9.5c-1.8,0-3.3,1.5-3.3,3.3h0v5.9C2.6,11.5,0,16.1,1.3,20.5c.8,2.8,2.9,4.9,5.7,5.7v1.5c0,1.9,1.5,3.3,3.3,3.3h15.3c1.8,0,3.3-1.5,3.3-3.3v-2c0-.6-.4-1-1-1s-1,.4-1,1v2c0,.7-.6,1.3-1.3,1.3,0,0,0,0,0,0h-15.3c-.7,0-1.3-.6-1.3-1.3,0,0,0,0,0,0v-1.2h.3c.3,0,.6,0,.9,0h.3s.6-.1.6-.1h.3c.2,0,.4-.2.5-.2h.3c0-.1.5-.3.5-.3h.3c0-.1.5-.4.5-.4l.3-.2c.2-.1.3-.2.5-.4h.2c.2-.3.4-.5.6-.7h.1c.2-.3.3-.5.4-.6,0,0,.1-.2.2-.2s.2-.3.3-.5.1-.2.2-.3.2-.3.3-.5v-.3c.2-.2.3-.3.4-.5s0-.2.1-.3.1-.4.2-.5,0-.2,0-.3,0-.5.1-.7c0,0,0-.1,0-.2,0-.3,0-.6,0-.9h0v-.3c0,0,0-.5,0-.7v-.4c0-.1-.1-.3-.1-.4s0-.2,0-.3c-.6-2.5-2.4-4.5-4.7-5.5h-.2c0-.1-.4-.3-.4-.3h-.3c0-.1-.4-.2-.4-.2h-.3c0,0-.5-.1-.5-.1h-1.3v-5.6c0-.7.6-1.3,1.3-1.3,0,0,0,0,0,0h9.4v4.7c0,1.5,1.2,2.8,2.7,2.8,0,0,0,0,0,0h4.4s0,5.9,0,5.9c0,.5.5,1,1,1ZM3,18.2c0-3.1,2.2-5.7,5.2-6.2.4,0,.7-.1,1.1-.1,3.5,0,6.3,2.8,6.3,6.3,0,3.5-2.8,6.3-6.3,6.3-.4,0-.7,0-1.1-.1h0c-3-.5-5.2-3.1-5.2-6.1ZM22.6,8.5c-.2,0-.4,0-.6-.2-.1-.1-.2-.3-.2-.5v-3.3l3.9,4h-3.1Z"/>
  <path class="st0" d="M7.9,17.8l-1.1,1.1c-.4.4-.4,1,0,1.4s1,.4,1.4,0l1.1-1.1,1.1,1.1c.4.4,1,.4,1.4,0s.4-1,0-1.4l-1.1-1.1,1.1-1.1c.4-.4.4-1,0-1.4s-1-.4-1.4,0l-1.1,1.1-1.1-1.1c-.4-.4-1-.4-1.4,0s-.4,1,0,1.4l1.1,1.1Z"/>
</svg>